<?xml version="1.0" encoding="UTF-8"?><svg id="Calque_1" xmlns="http://www.w3.org/2000/svg" viewBox="0 0 250 232"><defs><style>.cls-1{fill:#f7b179;}.cls-2{fill:#f8b783;}.cls-3{fill:#fad5ab;}.cls-4{fill:#f1cf45;}.cls-5{fill:#eae0db;}.cls-6{fill:#ea7239;}.cls-7{fill:#ebc5a0;}.cls-8{fill:#fff;}.cls-9{fill:#e7733b;}.cls-10{fill:#f18753;}.cls-11{fill:#985928;}.cls-12{fill:#cbd9e5;}.cls-13{fill:#d78b47;}.cls-14{fill:#75665d;}.cls-15{fill:#7b4416;}</style></defs><rect class="cls-12" x="2.93" y="51.05" width="242.91" height="154.44" rx="6.27" ry="6.27"/><g><path class="cls-2" d="M245.8,98.03c-1.29-3.39-50.35,2.84-50.35,2.84l-22.04,40.51s-.3-.43-.9-1.2c-.52-.64-1.16-1.55-2.02-2.66-1.46-1.93-3.39-4.51-5.59-7.39-.52-.73-1.12-1.46-1.68-2.23-6.66-8.76-14.82-19.46-18.47-23.93-.17-.26-.39-.52-.56-.73-.09-.09-.13-.17-.21-.26-.13-.13-.21-.26-.3-.34-.13-.17-.26-.3-.39-.43-.09-.13-.22-.26-.26-.3-1.42-1.42-6.83-1.59-11.43-1.46-.47,0-.95,.04-1.37,.04-.69,.04-1.33,.09-1.89,.09-.21,0-.43,.04-.6,.04-.3,0-.56,.04-.82,.09-.09-.04-.17,0-.26,0-.47,.04-.86,.09-1.16,.09-.56,.04-.9,.09-.9,.09l.69-3.05,.6-2.66c4.17-4.38,8.85-22.04,8.85-22.04,.52-1.55,.52-28.01,.52-28.01,0,0,.82-.99,1.98-2.41,2.23-2.75,5.8-7.26,7.35-9.8,2.36-3.91-.77-9.62-.77-9.62l-14.26-1.29c0-8.81-8.81-15.3-8.81-15.3-7.56-9.37-23.11-2.62-23.11-2.62-13.49-.77-20.24,17.66-20.24,17.66-1.89,1.89-1.89,13.19-1.72,19.25,.04,1.59,.09,2.84,.13,3.44,.04,.26,.04,.43,.04,.43-6.57,5.11,1.42,14.48,3.05,16.28l.3,.3c-8.55,12.46,10.4,12.2,10.4,12.2l4.38,8.29-.17,1.16-1.98,13.66-10.4,4.38-9.24,3.91c-.77,.26-1.5,.56-2.23,.9-.43,.17-.82,.39-1.2,.6-.77,.39-1.55,.82-2.28,1.29-.77,.47-1.5,.99-2.23,1.55-1.46,1.07-2.88,2.32-4.3,3.69-.69,.69-1.37,1.37-2.06,2.11-1.25,1.37-2.49,2.88-3.74,4.43-.04,.09-.13,.21-.22,.3-1.25,1.63-2.49,3.35-3.69,5.16-.6,.95-1.2,1.89-1.85,2.88-.99,1.59-1.93,3.22-2.84,4.85-3.35,5.93-6.27,12.12-8.72,17.83-.17,.47-.39,.99-.6,1.46-4.43,10.57-7.22,19.38-7.95,21.83-.04,.13-.09,.22-.09,.3-.09,.26-.13,.39-.13,.39-17.66,12.97,47.78,29.17,47.78,29.17,5.67,1.68,36.82,0,36.82,0l1.93-.77,4.81-1.93c2.62,21.27,26.85,17.66,26.85,17.66,20.11-4.17,9.49-20.28,9.49-20.28-37.89,2.62-7.26-9.84-7.26-9.84l28.74-12.46,24.92-10.78,2.66-1.16,5.16,.26s4.51-7.69,10.35-17.83c3.27-5.63,6.92-12.03,10.4-18.3,8.25-14.74,15.68-28.74,15.08-30.29ZM75.84,182.54l-12.46-5.37c-15.85-3.61,6.75-19.98,6.75-19.98,9.19-22.04,5.71,25.35,5.71,25.35Z"/><path class="cls-11" d="M99.51,69.71s-3.44,9.54-7.6,0c-1.93-4.3-7.48-7-13.02-8.59-1.63-1.8-9.62-11.17-3.05-16.28,0,0,0-.17-.04-.43-.04-.6-.09-1.85-.13-3.44l2.75-4.81h13.83s-3.48,18.17,1.03,21.31l6.23,12.24Z"/><path class="cls-11" d="M97.1,51.05s12.02-5.1,17.21-1.73c0,0,4.5-7.27-2.6-8.13s-20.07,1.3-14.62,9.86Z"/><path class="cls-9" d="M144.58,32.89c-1.55,2.53-5.11,7.05-7.35,9.8-4.6-5.46-12.55-9.07-16.5-8.51-4.77,.69-18.09,8.94-22.56,10.96-.64,.3-1.12,.47-1.33,.47-1.03,0-2.53-2.15-3.57-3.95-.82-1.37-1.37-2.53-1.37-2.53l-16.11,5.28c-.13-2.96-.82-20.32,1.59-22.69,0,0,6.75-18.43,20.24-17.66,0,0,15.55-6.75,23.11,2.62,0,0,7.73,5.71,8.72,13.66,.04,.52,.09,1.07,.09,1.63l14.26,1.29s.13,.22,.26,.56c.73,1.55,2.45,5.89,.52,9.07Z"/><path class="cls-5" d="M144.58,32.89c-1.55,2.53-5.11,7.05-7.35,9.8-4.6-5.46-12.55-9.07-16.5-8.51-5.46,.77-22.08,11.43-23.89,11.43-1.03,0-2.53-2.15-3.57-3.95,5.33-7.39,14.18-17.19,24.06-18l12.12-3.31c.04,.52,.09,1.07,.09,1.63l14.26,1.29s3.14,5.71,.77,9.62Z"/><path class="cls-14" d="M144.58,32.89c-1.55,2.53-5.11,7.05-7.35,9.8-4.6-5.46-12.55-9.07-16.5-8.51-4.77,.69-18.09,8.94-22.56,10.96,6.75-9.5,20.97-23.29,45.89-21.31,.73,1.55,2.45,5.89,.52,9.07Z"/><path class="cls-11" d="M132.05,47.59s-8.65-1.56-8.82,0c0,0-4.84-5.02,0-6.58l8.82,.7s2.77,2.94,0,5.88Z"/><path class="cls-8" d="M109.21,78.73s10.4,2.51,17.96-1.56c0,0-6.89,25.43-17.96,1.56Z"/><circle class="cls-15" cx="107.48" cy="58.66" r="4.24"/><circle class="cls-15" cx="127.18" cy="57.8" r="4.24"/><path class="cls-4" d="M230.72,128.32c-3.48,6.27-7.13,12.67-10.4,18.3-5.84,10.14-10.35,17.83-10.35,17.83l-5.16-.26-2.66,1.16-34.71-19.51,3.05-8.33c.86,1.12,1.5,2.02,2.02,2.66,.6,.77,.9,1.2,.9,1.2l22.04-40.51s49.06-6.23,50.35-2.84c.6,1.55-6.83,15.55-15.08,30.29Z"/><path class="cls-10" d="M148.49,188.6l28.74-12.46-3.82-34.76c-1.37-1.8-5.11-6.75-8.51-11.26-.52-.73-1.12-1.46-1.68-2.23-6.66-8.76-14.82-19.46-18.47-23.93-.17-.26-.39-.52-.56-.73-.09-.09-.13-.17-.21-.26-.13-.13-.21-.26-.3-.34-.13-.17-.26-.3-.39-.43-.09-.13-.22-.26-.26-.3-1.42-1.42-6.83-1.59-11.43-1.46-.47,0-.95,.04-1.37,.04-.69,.04-1.33,.09-1.89,.09-.21,0-.43,.04-.6,.04-.3,0-.56,.04-.82,.09-.09-.04-.17,0-.26,0-.47,.04-.86,.09-1.16,.09-.56,.04-.9,.09-.9,.09l.69-3.05c-11.56,1.76-24.32-8.08-31.49-14.74l-1.98,13.66-10.4,4.38-9.24,3.91c-.77,.26-1.5,.56-2.23,.9-.43,.17-.82,.39-1.2,.6-.77,.39-1.55,.82-2.28,1.29-.77,.47-1.5,.99-2.23,1.55-1.46,1.07-2.88,2.32-4.3,3.69-.69,.69-1.37,1.37-2.06,2.11-1.25,1.37-2.49,2.88-3.74,4.43-.04,.09-.13,.21-.22,.3-1.25,1.63-2.49,3.35-3.69,5.16-.6,.95-1.2,1.89-1.85,2.88-.99,1.59-1.93,3.22-2.84,4.85-3.35,5.93-6.27,12.12-8.72,17.83-.17,.47-.39,.99-.6,1.46-4.43,10.57-7.22,19.38-7.95,21.83-.04,.13-.09,.22-.09,.3-.09,.26-.13,.39-.13,.39-17.66,12.97,47.78,29.17,47.78,29.17,5.67,1.68,36.82,0,36.82,0l1.93-.77,4.81-1.93c2.62,21.27,26.85,17.66,26.85,17.66,20.11-4.17,9.49-20.28,9.49-20.28-37.89,2.62-7.26-9.84-7.26-9.84Zm-72.65-6.06l-12.46-5.37c-15.85-3.61,6.75-19.98,6.75-19.98,9.19-22.04,5.71,25.35,5.71,25.35Z"/><path class="cls-6" d="M143.81,165.22l-2.75,17.31h-42.88s-19.72-59.29-29.43-76c1.12-.64,2.28-1.12,3.44-1.5l9.24-3.91,19.72,23.29,10.57-14.09,15.47,10.27,4.43-20.15c4.6-.13,10.01,.04,11.43,1.46,.17,.17,.52,.56,.95,1.07-3.57,18.95-7.48,48.81-.17,62.25Z"/><polygon class="cls-3" points="208.51 158.82 208.51 213.51 152.49 229.2 152.27 229.24 106.36 158.83 163.7 145.85 208.51 158.82"/><polygon class="cls-13" points="106.36 158.83 151.25 170.42 152.29 229.25 106.36 219.73 106.36 158.83"/><path class="cls-1" d="M146.26,218.71s-24.23,3.61-26.85-17.66l-4.81,1.93c.86-6.19,2.66-12.33,2.66-12.33l13.4-4.6s11.43-2.84,15.21-3.87c3.82-1.03,2.62,6.4,2.62,6.4,0,0-30.63,12.46,7.26,9.84,0,0,10.61,16.11-9.49,20.28Z"/><path class="cls-10" d="M114.59,205.2s5.69-11.09,2.66-14.54c-3.03-3.45-6.14-3.97-6.14-3.97l-16.78-3.11-7.27-1.48-4.5,7.19s-3.29,11.4,0,11.24,30.14,6.41,32.02,4.68Z"/><polygon class="cls-7" points="208.51 158.91 208.51 213.51 152.49 229.2 151.25 170.42 208.51 158.91"/><path class="cls-6" d="M230.72,128.32c-3.48,6.27-7.13,12.67-10.4,18.3-17.23-9.45-7.78-15.42-5.67-18.65,1.59-2.41,11-.77,16.07,.34Z"/></g></svg>