<?xml version="1.0" encoding="UTF-8"?><svg id="Calque_1" xmlns="http://www.w3.org/2000/svg" viewBox="0 0 250 232"><defs><style>.cls-1{fill:#f9b980;}.cls-2{fill:#f9b87b;}.cls-3{fill:#fad5ab;}.cls-4{fill:#693310;}.cls-5{fill:#efa773;}.cls-6{fill:#ea7339;}.cls-7{fill:#ebc5a0;}.cls-8{fill:#f39577;}.cls-9{fill:#ffd21e;}.cls-10{fill:#9f6530;}.cls-11{fill:#d78e5a;}.cls-12{fill:#d78b47;}.cls-13{fill:#ddb54c;}.cls-14{fill:#95ceb9;}.cls-15{fill:#773612;}</style></defs><rect class="cls-14" x="33.63" y="62.73" width="208.58" height="132.61" rx="6.27" ry="6.27"/><path class="cls-6" d="M71.97,83.8c-6.5-4.53-18.43-12.74-20.95-13.85-.28-.12-.56-.25-.82-.42l-19.68-12.63c-1.66-1.06-3.8-1.22-5.5-.22-.93,.55-1.73,1.42-1.94,2.78-.09,.57-.28,1.13-.55,1.64-1.17,2.22-4.15,7.98-5.82,12.51-1.09,2.94,.58,6.18,3.6,7.05,12.55,3.64,46.74,13.53,47.59,13.53,.34,0,1.57-.32,3-.91,3.99-1.62,4.6-7.03,1.06-9.49Z"/><g><polygon class="cls-3" points="133.41 79.05 133.41 120.93 90.51 132.94 90.34 132.97 55.19 79.06 99.09 69.11 133.41 79.05"/><polygon class="cls-12" points="55.19 79.06 89.56 87.93 90.36 132.98 55.19 125.69 55.19 79.06"/><polygon class="cls-7" points="133.41 79.11 133.41 120.93 90.51 132.94 89.56 87.93 133.41 79.11"/></g><path class="cls-1" d="M61.97,101.67s18.72-6.72,24.51-6.27l8.47-3.55s7.13-1.75,0,4.91c0,0-16.49,8.64,0,13.44,0,0,28.08-5.54,1.34,17.91,0,0-16.91,1.04-31.2-15.33l-5.08,.64,1.96-11.75Z"/><path class="cls-6" d="M59.63,100.2c1.49,.83,2.38,2.42,2.36,4.12-.04,3.52-.4,9.45-2.25,10.68-2.67,1.78-36.55-4.8-36.55-4.8l-14.51-3.37c-2.72-.63-4.28-3.48-3.35-6.11l3.62-10.22c.76-2.16,2.97-3.44,5.22-3.04,9.61,1.73,34.39,6.6,45.46,12.74Z"/><path class="cls-1" d="M234.01,151.32s-18.08,14.28-17.63,17.38c.04,.26,.07,.63,.11,1.07,.37,4.83,.29,19.52,.29,19.52h-51.87s0-10.26-.74-11.14c-.15-.15-1-.7-2.29-1.51-3.21-1.92-9.19-5.2-14.35-7.56-4.06-1.88-7.64-3.21-8.93-2.8-.33,.11-.7,.26-1.07,.44-3.43,1.77-8.19,6.64-17.86,6.23,0,0-31.87-20.73-34.75-20.95-2.91-.22-17.38-.44-19.18,1.81,0,0-22.28-13.54-12.03-20.81,0,0,2.47-3.28,5.13,3.17,0,0,12.69,14.06,13.95,4.69,0,0,.11-5.35-3.69-5.35s-8.04-10.26,3.69-4.91c0,0,13.02,5.13,13.91,10.26,0,0,22.84,14.72,24.79,13.83,1.96-.89,10.62,2.43,10.62,2.43l3.8-5.64,.15-.26,.07-.11-2.88-2.88,33.42-31.43s17.04-6.86,25.01-5.94c.3,.04,.55,.11,.81,.15l6.94-3.8s1.03-.52,2.07-1.18c1-.59,1.96-1.36,2.1-1.92,.18-.48-.33-.85-1.96-.92-5.57-.22-10.92-1.88-12.25-7.67-1.33-5.79-1.55-29.96-1.55-29.96,0,0-.33-.33-.85-.92-2.91-3.17-11.44-13.8-1.84-18.48,0,0,11.81-19.37,23.61-17.38,0,0,11.81-4.02,16.93,5.57,0,0,6.49,11.81,8.49,.22,0,0,4.02-7.12,6.9-4.46,0,0,19.85,.74,13.17,16.64,0,0-7.38,2.99-7.16,5.87,0,0,3.8,10.92,2.69,17.86,0,0-5.87,23.72-18.22,25.6-1.07,.18-2.21,.18-3.39,0,0,0-.18,.48-.44,1.33-.63,1.84-1.66,5.24-2.21,8.63-.59,3.95-.52,7.86,1.77,9.3,0,0,2.21,.44,5.39,1.25,8.37,2.21,23.46,7.08,22.95,13.36,0,0,5.31,12.51-11.62,21.4Z"/><path class="cls-8" d="M182.52,87.7s6.13,.89,6.57,1.34,4.9-1.89,5.01,0-6.91,11.03-10.47,5.57c0,0-2.34,.33-1.11-6.91Z"/><path class="cls-15" d="M237.11,52.59s3.8,10.92,2.69,17.86c0,0-6.94,28.07-21.62,25.6,0,0-.18,.48-.44,1.33-2.99-3.54-.37-9.15-.44-10.22-.11-1.36,7.67-1.7,7.67-1.7,11.36-7.12,3.03-12.69,3.03-12.69-7.05-6.01-10.03,9.48-10.03,9.48,0,0-1.11,2.77-2.91,1.66-1.77-1.11-1.66-2.43,.66-5.35,2.36-2.91,4.91-16.27,4.91-16.27,2.36-16.6-12.03-1.66-12.03-1.66-13.24,6.01-12.8,.33-19.85-7.16-7.01-7.45-7.01,1.59-6.57,5.35,.26,2.47-2.91,4.61-5.16,5.79-2.91-3.17-11.44-13.8-1.84-18.48,0,0,11.81-19.37,23.61-17.38,0,0,11.81-4.02,16.93,5.57,0,0,6.49,11.81,8.49,.22,0,0,4.02-7.12,6.9-4.46,0,0,19.85,.74,13.17,16.64,0,0-7.38,2.99-7.16,5.87Z"/><path class="cls-10" d="M196.89,65.87s0,6.24,1.23,5.46c0,0,11.38-1.67,14.48,2.79,0,0,4.46-.22-.78-7.02,0,0-15.06-4.05-14.93-1.23Z"/><path class="cls-10" d="M189.76,65.64s1-7.13-8.47-5.91-4.28,4.88-4.28,4.88l7.29,1.02s4.68,1.89,5.46,0Z"/><path class="cls-9" d="M234.01,151.32s-18.08,14.28-17.63,17.38c.48,3.14,.41,20.59,.41,20.59h-51.87s0-10.26-.74-11.14c-.15-.15-1-.7-2.29-1.51-1.07-13.17-3.43-28.85-3.43-28.85l-7.34,12.58-25.2-8.89,.22-.37-2.88-2.88,33.42-31.43s17.04-6.86,25.01-5.94c.3,.04,.55,.11,.81,.15l6.94-3.8s1.03-.52,2.07-1.18h24.02c-.59,3.95-.52,7.86,1.77,9.3,0,0,2.21,.44,5.39,1.25,8.37,2.21,23.46,7.08,22.95,13.36,0,0,5.31,12.51-11.62,21.4Z"/><ellipse class="cls-4" cx="203.38" cy="78.34" rx="3.48" ry="4.23"/><ellipse class="cls-4" cx="183.55" cy="71.88" rx="3.48" ry="4.23"/><path class="cls-13" d="M216.78,189.28h-51.87s0-10.26-.74-11.14c-.15-.15-1-.7-2.29-1.51-.96-.55-2.14-1.25-3.5-2.03-.37-.22-.7-.41-1.07-.59-2.99-1.62-6.57-3.47-9.78-4.94l-.07-.66-1.29-9.56-.7-5.35s16.05-28.33,18.7-20.55c2.69,7.75,2.07,28.55,7.42,27.96,5.35-.59,14.46-7.45,16.56-2.69,.41,.96,1.14,2.69,2.07,4.8,1.84,4.13,4.43,9.7,6.9,13.83,2.47,4.13,4.83,6.82,6.27,5.24,3.21-3.54,6.64-11.58,13.1-12.32,.37,4.83,.29,19.52,.29,19.52Z"/><path class="cls-11" d="M137.54,166.7c-3.43,1.77-8.19,6.64-17.86,6.23,0,0-31.87-20.73-34.75-20.95-2.91-.22-17.38-.44-19.18,1.81,0,0-22.28-13.54-12.03-20.81,0,0,2.47-3.28,5.13,3.17,0,0,12.69,14.06,13.95,4.69,0,0,.11-5.35-3.69-5.35s-8.04-10.26,3.69-4.91c0,0,13.02,5.13,13.91,10.26,0,0,22.84,14.72,24.79,13.83,1.96-.89,10.62,2.43,10.62,2.43l3.8-5.64,.15-.26c6.42,2.88,13.61,7.93,11.47,15.49Z"/><path class="cls-2" d="M197.12,176.85c-.18,.55-.33,.89-.33,.89-4.91,6.23-21.18,3.91-23.83,4.02-1.18,.04-7.67-3.36-14.57-7.16-.37-.22-.7-.41-1.07-.59-3.43-1.96-6.94-3.91-9.85-5.61-4.28-2.47-7.38-4.28-7.38-4.28-4.02,5.46-27.96-.33-27.96-.33-7.6-9.11-4.72-10.59-2.69-13.35,2.07-2.77,15.05,7.34,19.48,6.05,4.46-1.33,.04-10.18,.04-10.18-.33-3.76,4.69,.11,7.12,5.13,1.51,3.14,6.35,5.68,10.11,7.42,2.25,1.03,4.17,1.73,4.72,2.07,1.44,.89,27.19,7.23,27.19,7.23l12.14-5.13c1.84,4.13,4.43,9.7,6.9,13.83Z"/><path class="cls-5" d="M222.68,116.57c-6.97,4.35-24.35,7.45-24.35,7.45-4.8,4.46-12.73-6.79-16.64-13.17,.3,.04,.55,.11,.81,.15l6.94-3.8s3.87-1.88,4.17-3.1c8.96-3.62,22.67-8.33,23.3-8.88,.48-.41-1.53-.64,1.27,.84-1.07,.18,1.18,.18,0,0,0,0-.18,.48-.44,1.33-1.33,3.91-4.69,15.24-.44,17.93,0,0,2.21,.44,5.39,1.25Z"/></svg>