<?xml version="1.0" encoding="UTF-8"?><svg id="Calque_1" xmlns="http://www.w3.org/2000/svg" viewBox="0 0 250 232"><defs><style>.cls-1{fill:#f8b37f;}.cls-2{fill:#eee4e8;}.cls-3{fill:#f09571;}.cls-4{fill:#f1b081;}.cls-5{fill:#e86f37;}.cls-6{fill:#915c2d;}.cls-7{fill:#cfc2d6;}.cls-8{fill:#422d36;}.cls-9{fill:#724522;}.cls-10{fill:#4b363f;}.cls-11{fill:#29172a;}.cls-12{fill:#343130;}.cls-13{fill:#4d2b12;}</style></defs><path class="cls-7" d="M244.91,64.57V203.84c0,3.65-2.96,6.61-6.61,6.61H11.7c-3.65,0-6.61-2.96-6.61-6.61V64.57c0-3.65,2.96-6.6,6.61-6.6H238.3c3.65,0,6.61,2.95,6.61,6.6Z"/><path class="cls-5" d="M113.93,114.66l-11.07-2.55-40-5.98s-22.18,9.59-22.86,17.43c0,0-24.94,67.61-24.94,68.67s-4.79,8.53,8.87,14c13.66,5.47,59.17,1.7,59.17,1.7l.68-.04,41.1-1.87,.13-.04,9.63-.42,21.17-8.23s-16.08-73.42-41.86-82.67Zm-56.03,70.37l-4.92,2.08s-7.51-4.79-6.15-4.79,6.15-11.96,6.15-11.96c5.13,3.44,4.92,14.68,4.92,14.68Z"/><path class="cls-1" d="M117.19,48.24s4.78,33.65-11.44,42.36c0,0-4.27,2.73-4.27,6.49s1.54,13.66,1.37,15.03-6.15,17.25-8.03,18.11-23.91-20.15-23.91-20.15l-3.76-6.66-9.22-24.6v-18.79l4.44-14.86,9.39-9.74,13.32-7.52h12.98l9.74,1.37,8.71,3.25s4.61,12.3,.68,15.71Z"/><path class="cls-13" d="M47.67,121.16s-35.61,2.74-11.53-29.54c0,0,6.92-4.36,5.12,10.76,0,0,8.71-.65,5.12-11.34,0,0-8.45-81.15,26.9-71.15,0,0-1.02-5.89,5.38-8.45s73.27,3.59,40.48,37.15c0,0-4.53,5.81-2.31-11.1,0,0-11.61,8.03-21.69,5.29,0,0-12.47,1.02-15.54-7.52,0,0-5.47-2.9-6.49,7.52-1.02,10.42-4.44,6.15-5.64,10.25s4.1,36.04,4.61,42.19c.51,6.15,5.29,7-9.05,17.76-14.35,10.76-15.37,8.19-15.37,8.19Z"/><path class="cls-9" d="M91.91,55.92s-16.06-2.05-18.11,2.9c0,0-7.17-.51,4.95-8.88,0,0,21.18-7.34,13.15,5.98Z"/><path class="cls-9" d="M102.33,49.26s-2.22,7.52,2.73,5.98,12.75-1.19,12.44-4.1-13.8-5.47-15.17-1.88Z"/><circle class="cls-6" cx="85.08" cy="63.27" r="5.29"/><circle class="cls-6" cx="108.65" cy="63.27" r="5.29"/><path class="cls-3" d="M88.35,80.52s13.16-1.68,13.49-1.44-1.72,5.88-3.26,6.73-8.49,2.56-10.22-5.29Z"/><circle class="cls-12" cx="85.08" cy="89.06" r="5.47"/><path class="cls-12" d="M70.39,89.06s11.15-.17,12.32,0-.75,4.49-.75,4.49c0,0-9.02,1.07-11.58,0s0-4.49,0-4.49Z"/><polygon class="cls-11" points="150.9 178.73 140.76 199.61 167.06 202.13 169.11 178.73 150.9 178.73"/><path class="cls-8" d="M123.68,110.92s105.9-.68,105.21,1.71-19.81,74.48-19.81,74.48H105.23l18.45-76.19Z"/><circle class="cls-2" cx="167.06" cy="148.97" r="4.35"/><path class="cls-4" d="M125,205.98l-.13,.04-41.1,1.87-1.06-5.43s19.77-22.86,40.3-3.05l1.99,6.57Z"/><rect class="cls-11" x="131.88" y="199.61" width="44.41" height="8.28"/><path class="cls-10" d="M244.91,198.67v5.17c0,3.65-2.96,6.61-6.61,6.61H11.7c-3.65,0-6.61-2.96-6.61-6.61v-5.17H244.91Z"/></svg>