<?xml version="1.0" encoding="UTF-8"?><svg id="Calque_1" xmlns="http://www.w3.org/2000/svg" viewBox="0 0 850 361.21"><defs><style>.cls-1{fill:#f08355;}.cls-2{fill:#fbeee5;}.cls-3{fill:#3a140e;}.cls-3,.cls-4{opacity:.2;}.cls-4{fill:#381510;}.cls-5{opacity:.15;}.cls-6{opacity:.58;}.cls-6,.cls-7{fill:#d89466;}.cls-7{opacity:.56;}</style></defs><rect class="cls-2" x=".84" y="0" width="850" height="361.21"/><rect class="cls-1" x=".84" y="0" width="454.25" height="361.21"/><g class="cls-5"><path class="cls-4" d="M115.73,318.36c0,7.38-1.89,13.76-5.66,19.16-3.78,5.39-9.04,9.52-15.79,12.39-6.76,2.87-14.5,4.3-23.24,4.3-2.44,0-5.44-.16-8.98-.47-3.55-.31-8.26-1.18-14.13-2.6-5.88-1.42-11.99-3.52-18.35-6.3v-28.95c5.96,3.69,11.82,6.76,17.58,9.2,5.76,2.44,11.93,3.66,18.52,3.66,6.07,0,10-1.01,11.79-3.02,1.79-2.01,2.68-3.9,2.68-5.66,0-3.18-1.53-5.86-4.6-8.05-3.07-2.18-7.52-4.44-13.37-6.77-6.47-2.72-12.15-5.69-17.03-8.9-4.88-3.21-8.87-7.22-11.96-12.05-3.09-4.82-4.64-10.53-4.64-17.11s1.56-12.1,4.68-17.24c3.12-5.14,7.89-9.24,14.3-12.3,6.41-3.06,14.25-4.6,23.5-4.6,6.58,0,12.67,.64,18.26,1.92,5.59,1.28,10.2,2.71,13.84,4.3,3.63,1.59,6.13,2.84,7.49,3.75v27.67c-4.83-3.46-10.2-6.56-16.13-9.28-5.93-2.72-12.27-4.09-19.03-4.09-4.43,0-7.63,.85-9.62,2.55-1.99,1.7-2.98,3.8-2.98,6.3,0,2.33,.99,4.34,2.98,6.04,1.99,1.7,5.53,3.78,10.64,6.22,9.08,4.26,16.35,8.09,21.8,11.49,5.45,3.41,9.72,7.34,12.81,11.79,3.09,4.46,4.64,10,4.64,16.65Z"/><path class="cls-4" d="M262.86,299.8c0,10.1-1.89,18.72-5.66,25.84-3.78,7.12-8.77,12.76-14.98,16.9-6.22,4.14-12.91,7.12-20.09,8.94-7.18,1.82-14.35,2.72-21.5,2.72-9.99,0-19.71-1.7-29.16-5.11-9.45-3.41-17.36-9.2-23.71-17.37-6.36-8.17-9.54-18.82-9.54-31.93v-65.13h35.5v55.94c0,7.78,1.12,14.21,3.36,19.28,2.24,5.08,5.36,8.8,9.37,11.15,4,2.36,8.73,3.53,14.18,3.53s9.85-1.16,13.88-3.49c4.03-2.33,7.17-6.02,9.41-11.07,2.24-5.05,3.36-11.46,3.36-19.24v-56.11h35.59v65.13Z"/><path class="cls-3" d="M428.03,352.68h-35.59v-68.37l-32.1,39.59h-2.81l-32.18-39.59v68.37h-34.57v-118.01h32.27l36.27,44.27,36.44-44.27h32.27v118.01Z"/><path class="cls-6" d="M595.08,352.68h-35.59v-68.37l-32.1,39.59h-2.81l-32.18-39.59v68.37h-34.57v-118.01h32.27l36.27,44.27,36.44-44.27h32.27v118.01Z"/><path class="cls-7" d="M713.85,352.68h-88.97v-118.01h87.53v23.67h-51.94v21.63h49.55v23.75h-49.55v25.2h53.38v23.75Z"/><path class="cls-7" d="M851.95,352.68h-38.23l-9.28-20.94c-3.41-7.66-6.47-13.27-9.2-16.82-2.72-3.55-5.38-5.82-7.96-6.81-2.58-.99-5.92-1.49-10-1.49h-4v46.06h-35.59v-118.01h60.54c9.76,0,17.77,1.99,24.01,5.96,6.24,3.97,10.74,8.8,13.5,14.47,2.75,5.68,4.13,11.07,4.13,16.18,0,5.96-1.15,11-3.45,15.11-2.3,4.12-4.73,7.11-7.28,8.98-2.55,1.87-5.42,3.66-8.6,5.36,3.8,2.21,6.94,4.84,9.41,7.88,2.47,3.04,5.83,9.18,10.09,18.43l11.92,25.63Zm-48.36-80.71c0-5.45-1.79-9.25-5.36-11.41-3.58-2.16-9.39-3.24-17.45-3.24h-7.49v28.44h7.66c8.68,0,14.63-.95,17.84-2.85,3.21-1.9,4.81-5.55,4.81-10.94Z"/></g></svg>